<?xml version="1.0" encoding="utf-8"?>
<!-- Generator: Adobe Illustrator 18.1.1, SVG Export Plug-In . SVG Version: 6.00 Build 0)  -->
<svg version="1.1" id="Layer_1" xmlns="http://www.w3.org/2000/svg" xmlns:xlink="http://www.w3.org/1999/xlink" x="0px" y="0px"
	 viewBox="0 0 65 65" enable-background="new 0 0 65 65" xml:space="preserve">
<g>
	<path fill="#673AB7" d="M42.8,42.9c-0.3,0-0.6,0.1-0.8,0.1c0,0-5,1.5-6.7,2c-0.3,0.6-1.4,1.9-2.7,1.6c-1.6-0.3-4.9-1.3-5.6-1.6
		c0,0,0,0-0.1,0c-0.1,0-0.2-0.1-0.3-0.1c-0.1-0.1-0.2-0.2-0.2-0.3c0-0.2,0.2-0.4,0.4-0.4c0,0,0.1,0,0.1,0l0,0c0,0,0.3,0.1,0.4,0.1
		c0,0,0,0,0,0l4.8,1.4c0,0,0.1,0,0.1,0h0c0.2,0,0.4,0.1,0.5,0.1c0.6,0.1,1.1-0.3,1.2-0.8c0-0.1,0-0.2,0-0.3c0,0,0,0,0,0
		c0-0.5-0.3-0.9-0.8-1c-7.3-2.9-7.5-3-8.8-3.1c-0.6-0.1-1.6-0.1-2.2-0.1l0,0h-1.8v1.4v4.4v1.3c0,0,1.4,0,2.1,0.1
		c1.1,0.2,2.5,0.7,4.4,1.6c3.6,1.8,4.3,1.5,8.9-1.1c3.8-2.1,6.1-2.7,7-3.1c0.4-0.2,0.9-0.6,0.9-1.2C44.1,43.3,43.5,42.9,42.8,42.9z"
		/>
	<path fill="#673AB7" d="M19.8,39.8v8.4c0,0.3-0.2,0.5-0.5,0.5h-1.8v0.8c0,0.3-0.2,0.5-0.5,0.5h-4.1V38H17c0.3,0,0.5,0.2,0.5,0.5
		v0.8h1.8C19.6,39.3,19.8,39.5,19.8,39.8z"/>
	<path fill="#673AB7" d="M22.1,22.1c0.3,0,0.6-0.1,0.8-0.1c0,0,5-1.5,6.7-2c0.3-0.6,1.4-1.9,2.7-1.6c1.6,0.3,4.9,1.3,5.6,1.6
		c0,0,0,0,0.1,0c0.1,0,0.2,0.1,0.3,0.1c0.1,0.1,0.2,0.2,0.2,0.3c0,0.2-0.2,0.4-0.4,0.4c0,0-0.1,0-0.1,0l0,0c0,0-0.3-0.1-0.4-0.1
		c0,0,0,0,0,0l-4.8-1.4c0,0-0.1,0-0.1,0h0c-0.2,0-0.4-0.1-0.5-0.1c-0.6-0.1-1.1,0.3-1.2,0.8c0,0.1,0,0.2,0,0.3c0,0,0,0,0,0
		c0,0.5,0.3,0.9,0.8,1c7.3,2.9,7.5,3,8.8,3.1c0.6,0.1,1.6,0.1,2.2,0.1l0,0h1.8v-1.4v-4.4v-1.3c0,0-1.4,0-2.1-0.1
		c-1.1-0.2-2.5-0.7-4.4-1.6c-3.6-1.8-4.3-1.5-8.9,1.1c-3.8,2.1-6.1,2.7-7,3.1c-0.4,0.2-0.9,0.6-0.9,1.2
		C20.9,21.7,21.4,22.1,22.1,22.1z"/>
	<path fill="#673AB7" d="M52.1,15v12H48c-0.3,0-0.5-0.2-0.5-0.5v-0.8h-1.8c-0.3,0-0.5-0.2-0.5-0.5v-8.4c0-0.3,0.2-0.5,0.5-0.5h1.8
		v-0.8c0-0.3,0.2-0.5,0.5-0.5L52.1,15L52.1,15z"/>
	<path fill="#673AB7" d="M42.3,32l-9.7-6.6c0,0,0,0,0,0c0,0,0,0,0,0c0,0,0,0,0,0c0,0,0,0,0,0c0,0,0,0,0,0c0,0,0,0,0,0c0,0,0,0,0,0
		c0,0,0,0,0,0c0,0,0,0,0,0c0,0,0,0,0,0c0,0,0,0,0,0c0,0,0,0,0,0c0,0,0,0,0,0c0,0,0,0,0,0c0,0,0,0,0,0c0,0,0,0,0,0c0,0,0,0,0,0
		c0,0,0,0,0,0c0,0,0,0,0,0c0,0,0,0,0,0c0,0,0,0,0,0c0,0,0,0,0,0c0,0,0,0,0,0c0,0,0,0,0,0L22.4,32c-0.2,0.1-0.3,0.5-0.2,0.7
		c0.1,0.2,0.3,0.2,0.4,0.2c0.1,0,0.2,0,0.3-0.1l9.4-6.4l9.4,6.4c0.1,0.1,0.2,0.1,0.3,0.1c0.2,0,0.3-0.1,0.4-0.2
		C42.6,32.5,42.6,32.2,42.3,32z"/>
	<path fill="#673AB7" d="M34.5,33.1h-4.3c-0.4,0-0.7,0.4-0.7,0.7V38c0,0.5,0.4,0.9,0.8,0.9h4.1c0.4,0,0.8-0.4,0.8-0.8v-4.2
		C35.2,33.5,34.9,33.1,34.5,33.1z M32.9,37.6h-1.2l0.2-1.8c-0.2-0.1-0.3-0.3-0.3-0.6c0-0.4,0.3-0.7,0.7-0.7c0.4,0,0.7,0.3,0.7,0.7
		c0,0.2-0.1,0.5-0.3,0.6L32.9,37.6z M31.2,31.8c0-0.6,0.5-1.2,1.2-1.2c0.6,0,1.2,0.5,1.2,1.2v1h0.9v-1c0-1.2-0.9-2.1-2.1-2.1
		c-1.2,0-2.1,0.9-2.1,2.1v1h0.9V31.8z"/>
</g>
</svg>
