<?xml version="1.0" encoding="utf-8"?>
<!-- Generator: Adobe Illustrator 18.1.1, SVG Export Plug-In . SVG Version: 6.00 Build 0)  -->
<svg version="1.1" id="Layer_1" xmlns="http://www.w3.org/2000/svg" xmlns:xlink="http://www.w3.org/1999/xlink" x="0px" y="0px"
	 viewBox="0 0 65 65" enable-background="new 0 0 65 65" xml:space="preserve">
<g>
	<path fill="#673AB7" d="M49.7,39c0.1,0.3,0.2,0.5,0.3,0.8l0.8-0.2c-0.1-0.3-0.2-0.6-0.3-0.9L49.7,39z"/>
	<path fill="#673AB7" d="M50.2,40.6c0.1,0.3,0.1,0.6,0.1,0.8l0.9-0.1c0-0.3-0.1-0.6-0.1-0.9L50.2,40.6z"/>
	<path fill="#673AB7" d="M48.9,37.5c0.2,0.2,0.3,0.5,0.4,0.7l0.8-0.4c-0.1-0.3-0.3-0.5-0.5-0.8L48.9,37.5z"/>
	<path fill="#673AB7" d="M47.9,36.2c0.2,0.2,0.4,0.4,0.5,0.6l0.7-0.5c-0.2-0.2-0.4-0.5-0.6-0.7L47.9,36.2z"/>
	<path fill="#673AB7" d="M51.2,42.2h-0.9c0,0.3,0,0.6,0,0.8l0.9,0.1C51.2,42.9,51.2,42.5,51.2,42.2z"/>
	<path fill="#673AB7" d="M33.7,46.3c-0.1-0.2-0.2-0.5-0.3-0.8l-0.8,0.3c0.1,0.3,0.2,0.6,0.4,0.8L33.7,46.3z"/>
	<path fill="#673AB7" d="M47.3,48.9l0.6,0.7c0.2-0.2,0.5-0.4,0.7-0.6l-0.6-0.6C47.7,48.5,47.5,48.7,47.3,48.9z"/>
	<path fill="#673AB7" d="M41.1,32.6c-0.3,0-0.6,0-0.9,0.1l0.1,0.9c0.3,0,0.6-0.1,0.8-0.1L41.1,32.6z"/>
	<path fill="#673AB7" d="M51.1,44.1l-0.9-0.2c-0.1,0.3-0.1,0.5-0.2,0.8l0.8,0.2C50.9,44.7,51,44.4,51.1,44.1z"/>
	<path fill="#673AB7" d="M39.5,33.7l-0.2-0.9c-0.3,0.1-0.6,0.2-0.9,0.3l0.3,0.8C38.9,33.8,39.2,33.7,39.5,33.7z"/>
	<path fill="#673AB7" d="M37.5,33.4c-0.3,0.1-0.6,0.3-0.8,0.4l0.4,0.8c0.2-0.1,0.5-0.3,0.7-0.4L37.5,33.4z"/>
	<path fill="#673AB7" d="M42.9,32.6c-0.3,0-0.6-0.1-0.9-0.1l0,0.9c0.3,0,0.6,0,0.8,0.1L42.9,32.6z"/>
	<path fill="#673AB7" d="M48.5,47.7l0.7,0.5c0.2-0.2,0.4-0.5,0.5-0.8L48.9,47C48.8,47.2,48.6,47.5,48.5,47.7z"/>
	<path fill="#673AB7" d="M50.5,45.8l-0.8-0.3c-0.1,0.3-0.2,0.5-0.3,0.8l0.8,0.4C50.3,46.4,50.4,46.1,50.5,45.8z"/>
	<path fill="#673AB7" d="M43.8,32.8l-0.2,0.9c0.3,0.1,0.5,0.1,0.8,0.2l0.3-0.8C44.4,33,44.1,32.9,43.8,32.8z"/>
	<path fill="#673AB7" d="M45.6,33.4l-0.4,0.8c0.3,0.1,0.5,0.2,0.7,0.4l0.4-0.8C46.1,33.7,45.8,33.5,45.6,33.4z"/>
	<path fill="#673AB7" d="M40.2,51.8l0.1-0.9c-0.3,0-0.6-0.1-0.8-0.2l-0.2,0.9C39.5,51.7,39.8,51.8,40.2,51.8z"/>
	<path fill="#673AB7" d="M47.9,34.9c-0.2-0.2-0.5-0.4-0.7-0.6l-0.5,0.7c0.2,0.2,0.4,0.3,0.7,0.5L47.9,34.9z"/>
	<path fill="#673AB7" d="M35.2,34.9l0.6,0.7c0.2-0.2,0.4-0.4,0.7-0.5l-0.5-0.7C35.7,34.5,35.4,34.7,35.2,34.9z"/>
	<path fill="#673AB7" d="M46.4,50.6c0.3-0.2,0.5-0.3,0.8-0.5l-0.5-0.7c-0.2,0.2-0.5,0.3-0.7,0.5L46.4,50.6z"/>
	<path fill="#673AB7" d="M34.5,48.9c0.2,0.2,0.4,0.4,0.7,0.6l0.6-0.7c-0.2-0.2-0.4-0.4-0.6-0.6L34.5,48.9z"/>
	<path fill="#673AB7" d="M42.9,51.8c0.3,0,0.6-0.1,0.9-0.2l-0.2-0.9c-0.3,0.1-0.5,0.1-0.8,0.2L42.9,51.8z"/>
	<path fill="#673AB7" d="M32.9,37.8l0.8,0.4c0.1-0.2,0.3-0.5,0.4-0.7L33.4,37C33.2,37.3,33.1,37.5,32.9,37.8z"/>
	<path fill="#673AB7" d="M31.9,43.2l0.9-0.1c0-0.3,0-0.6,0-0.8h-0.9C31.8,42.5,31.9,42.9,31.9,43.2z"/>
	<path fill="#673AB7" d="M31.9,41.3l0.9,0.1c0-0.3,0.1-0.6,0.1-0.8L32,40.4C32,40.7,31.9,41,31.9,41.3z"/>
	<path fill="#673AB7" d="M38.6,50.6c-0.3-0.1-0.5-0.2-0.8-0.3l-0.4,0.8c0.3,0.1,0.6,0.2,0.9,0.3L38.6,50.6z"/>
	<path fill="#673AB7" d="M32.2,39.5l0.8,0.2c0.1-0.3,0.2-0.5,0.3-0.8l-0.8-0.3C32.4,38.9,32.3,39.2,32.2,39.5z"/>
	<path fill="#673AB7" d="M33.9,36.2l0.7,0.5c0.2-0.2,0.4-0.4,0.5-0.6l-0.6-0.6C34.3,35.8,34.1,36,33.9,36.2z"/>
	<path fill="#673AB7" d="M44.7,51.4c0.3-0.1,0.6-0.2,0.9-0.3l-0.4-0.8c-0.3,0.1-0.5,0.2-0.8,0.3L44.7,51.4z"/>
	<path fill="#673AB7" d="M34.6,47.7c-0.2-0.2-0.3-0.4-0.5-0.7l-0.7,0.5c0.2,0.3,0.3,0.5,0.5,0.8L34.6,47.7z"/>
	<path fill="#673AB7" d="M36.4,49.4l-0.5,0.7c0.3,0.2,0.5,0.3,0.8,0.5l0.4-0.8C36.9,49.7,36.6,49.6,36.4,49.4z"/>
	<path fill="#673AB7" d="M32,44.1c0.1,0.3,0.1,0.6,0.2,0.9l0.8-0.2c-0.1-0.3-0.1-0.5-0.2-0.8L32,44.1z"/>
	<polygon fill="#673AB7" points="35.9,25.1 32.6,28.8 34.1,30.1 38,25.7 	"/>
	<polygon fill="#673AB7" points="29.1,32.8 26.2,36.2 27.3,37.7 30.6,34 	"/>
	<path fill="#673AB7" d="M40.2,19.3l-2.8-0.9c-1.6-0.5-3.4-0.6-5.1-0.1l-1.9,0.6l-1.3-0.4c-0.5-0.2-1.1-0.2-1.7-0.1
		c-2.8,0.6-5.3,2.3-7,4.6c-1.8,2.5-4.3,4.6-7.1,6c-0.6,0.3-1,0.9-1,1.6c0,0.9,0.6,1.6,1.5,1.8l1.8,0.4c0.7,0.1,1.5,0.2,2.2,0.1
		l0.9-0.1c2.4-0.2,4.7,0.7,6.4,2.4l0.4,0.4l2.4-2.7l-0.1-0.1c-0.2-0.2-0.3-0.4-0.3-0.6c0-0.2,0.1-0.5,0.2-0.6l3.5-4
		c0.3-0.4,0.9-0.4,1.2-0.1l0.1,0.1l2.4-2.8c-0.3-0.2-0.7-0.3-1-0.5c-0.8-0.5-1.5-1.3-1.8-2.3c2,0.3,4-0.2,5.7-1.2L40.2,19.3z
		 M15.5,29.9h-1.3V29h1.3V29.9z M25.9,23.2c-0.2-0.1-0.4-0.2-0.7-0.3c0,0.1,0,0.1,0,0.2c0,0.5-0.4,0.9-0.9,0.9
		c-0.5,0-0.9-0.4-0.9-0.9c0-0.1,0-0.1,0-0.2C23.2,23,23,23,22.8,23.2l-0.4-0.8c1.2-0.7,2.8-0.7,4,0L25.9,23.2z M36.2,19.8h-0.4
		c-1.1,0-2.3,0.2-3.4,0.5l-0.9,0.3l-0.3-0.8l0.9-0.3c1.2-0.4,2.4-0.6,3.6-0.6h0.4V19.8z"/>
	<path fill="#673AB7" d="M34.9,30.8l-3.1-2.6l-3.5,4l3.1,2.6L34.9,30.8z M32,30.5l0.7,0.6l-1.2,1.3l-0.7-0.6L32,30.5z"/>
	<path fill="#673AB7" d="M30.1,14c0,1.2-0.5,2.3-1.3,3.1l-0.3,0.3c0.3,0,0.7,0.1,1,0.2l1,0.3l1-0.3l0-0.1c0.2-1.1-0.1-2.2-0.7-3.2
		l-0.8-1.2V14z"/>
	<path fill="#673AB7" d="M39.1,25.8L35.5,30l0.2,0.1c0.2,0.2,0.3,0.4,0.3,0.6c0,0.2-0.1,0.5-0.2,0.6l-3.5,4
		c-0.2,0.2-0.4,0.3-0.7,0.3c-0.2,0-0.4-0.1-0.6-0.2l-0.2-0.1l-3,3.3l1.8,3.2l2,2.6c-0.1-0.7-0.2-1.4-0.2-2.1
		c0-5.6,4.5-10.1,10.1-10.1s10.1,4.5,10.1,10.1c0,3.1-1.4,6-3.7,7.8l4.6,0.1V26.4h-6.2L39.1,25.8z"/>
	<g>
		<g>
			<path fill="#673AB7" d="M45.3,43.7c0.6-0.5,1-1.3,1-2.2c0-0.7-0.3-1.4-0.7-1.9v-2.7c0-0.1-0.1-0.2-0.2-0.2h-8.6
				c-0.1,0-0.2,0.1-0.2,0.2V48c0,0.1,0.1,0.2,0.2,0.2h8.6c0.1,0,0.2-0.1,0.2-0.2v-1.4l0.9-0.3L45.3,43.7z M45.9,41.5
				c0,0.9-0.5,1.7-1.3,2.1c-0.3,0.1-0.6,0.2-1,0.2c-1.3,0-2.3-1-2.3-2.3s1-2.3,2.3-2.3S45.9,40.3,45.9,41.5z M42.7,44.1l-0.5,2.2
				l-1-0.3l1-2.1C42.4,44,42.5,44.1,42.7,44.1z M45.1,47.7h-8.1V37.2h8.1v2.1c-0.4-0.3-1-0.5-1.5-0.5c-0.6,0-1.2,0.2-1.7,0.6v0h-3.3
				v0.5h2.8c-0.4,0.5-0.6,1.1-0.6,1.7c0,0.2,0,0.5,0.1,0.7h-2.3v0.5h2.4c0.2,0.4,0.4,0.7,0.7,0.9l-0.7,1.4h-2.5v0.5h2.3l-0.3,0.7
				l2,0.7l0.6-2.7c0.1,0,0.3,0,0.4,0c0.1,0,0.2,0,0.3,0l0.6,2.7l0.6-0.2C45.1,46.8,45.1,47.7,45.1,47.7z M44.9,46.3l-0.5-2.2
				c0.1,0,0.4-0.2,0.5-0.2l1,2L44.9,46.3z"/>
			<path fill="#673AB7" d="M43,40.7l-1.3,0.2l0.9,0.9l-0.2,1.3l1.2-0.6l1.1,0.6l-0.2-1.3l0.9-0.9l-1.3-0.2l-0.6-1.2
				C43.6,39.6,43,40.7,43,40.7z M43.8,41.2l0.5,0.1L44,41.7l0.1,0.5l-0.5-0.2l-0.5,0.3l0.1-0.6l-0.4-0.4l0.5-0.1l0.2-0.5L43.8,41.2z
				"/>
		</g>
	</g>
</g>
</svg>
