<?xml version="1.0" encoding="utf-8"?>
<!-- Generator: Adobe Illustrator 18.1.1, SVG Export Plug-In . SVG Version: 6.00 Build 0)  -->
<svg version="1.1" id="Layer_1" xmlns="http://www.w3.org/2000/svg" xmlns:xlink="http://www.w3.org/1999/xlink" x="0px" y="0px"
	 viewBox="0 0 65 65" enable-background="new 0 0 65 65" xml:space="preserve">
<g>
	<path fill="#673AB7" d="M48.5,13.2h-32c-1.9,0-3.2,1.4-3.2,3.2v24.1V42c0,1.9,1.4,3.2,3.2,3.2h12.1v2.6h-3c-1.9,0-3.2,1.4-3.2,3.2
		c0,0.5,0.2,0.7,0.7,0.7h19.3c0.5,0,0.7-0.2,0.7-0.7c0-1.9-1.4-3.2-3.2-3.2h-3.2v-2.6h12.1c1.9,0,3.2-1.4,3.2-3.2v-1.4V16.3
		C51.8,14.6,50.1,13.2,48.5,13.2z M14.6,16.3c0-1.2,0.9-1.9,1.9-1.9h32c1.2,0,1.9,0.9,1.9,1.9v23.7H14.6V16.3z M41.3,50.1H23.7
		c0.2-0.7,0.9-1.2,1.9-1.2h3.9H36h3.5C40.4,49,41.1,49.4,41.3,50.1z M35.1,47.6h-5.1V45h5.1C35.1,45,35.1,47.6,35.1,47.6z
		 M50.4,41.8c0,1.2-0.9,1.9-1.9,1.9H35.7h-6.5H16.5c-1.2,0-1.9-0.9-1.9-1.9v-0.7h35.7C50.4,41.1,50.4,41.8,50.4,41.8z"/>
	<path fill="#673AB7" d="M42,29.7v-5.8c0-0.7-0.5-1.4-1.4-1.4h-1.2c-0.7,0-1.2,0.5-1.2,1.4v0.7h-7v-1.2c0-0.7-0.5-1.4-1.4-1.4h-2.6
		v-1.9c0-0.7-0.5-1.4-1.2-1.4h-1.4c-0.7,0-1.4,0.7-1.4,1.4v9.5c0,0.5,0.5,0.7,0.7,0.7h2.6c0.5,0,0.7-0.2,0.7-0.7v-1.2h10.9v1.2
		c0,0.5,0.2,0.7,0.7,0.7h2.6C41.8,30.4,42,30.2,42,29.7z M29.9,23.4v1.4h-2.6v-1.4H29.9z M40.9,29h-1.4v-1.2c0-0.5-0.2-0.7-0.7-0.7
		H26.7c-0.5,0-0.7,0.2-0.7,0.7V29h-1.2v-8.8h1.4v2.6v2.6c0,0.5,0.2,0.7,0.7,0.7h3.9h8.4c0.5,0,0.7-0.2,0.7-0.7v-1.4h1.4V29H40.9z"/>
	<path fill="#673AB7" d="M35.7,31.6h-6.5c-1.2,0-1.9,0.9-1.9,1.9v1.4c0,1.2,0.9,1.9,1.9,1.9h6.5c1.2,0,1.9-0.9,1.9-1.9v-1.2
		C37.6,32.5,36.7,31.6,35.7,31.6z M36.2,34.8c0,0.5-0.2,0.7-0.7,0.7h-6.3c-0.5,0-0.7-0.2-0.7-0.7v-1.2c0-0.5,0.2-0.7,0.7-0.7h6.5
		c0.5,0,0.7,0.2,0.7,0.7v1.2H36.2z"/>
	<path fill="#673AB7" d="M45,33.9c0.2-0.2,0.2-0.5,0.2-0.7c0-0.2-0.2-0.5-0.5-0.5l-5.1-1.4c-0.2,0-0.5,0-0.7,0.2
		c-0.2,0.2-0.2,0.5-0.2,0.7l1.4,5.1c0,0.2,0.2,0.5,0.5,0.5c0,0,0,0,0.2,0c0.2,0,0.2,0,0.5-0.2l1.4-1.4l2.8,2.8l0.9-0.9l-2.8-2.8
		L45,33.9z M41.1,36.2l-0.7-3l3,0.7L41.1,36.2z"/>
	<rect x="31.8" y="20.7" fill="#673AB7" width="1.4" height="1.4"/>
	<path fill="#673AB7" d="M34.8,19c-0.9-0.7-1.9-0.7-2.3-0.7c-1.2,0-1.9,0.5-2.3,0.7l0.7,0.9c0.2-0.2,0.7-0.5,1.6-0.5
		c0.2,0,0.9,0,1.6,0.5L34.8,19z"/>
	<path fill="#673AB7" d="M32.5,16.9c0.5,0,1.6,0,2.8,1.2l0.9-0.9c-1.4-1.4-3-1.4-3.7-1.4c-1.9,0-3.2,0.9-3.7,1.4l0.9,0.9
		C30.2,17.6,31.1,16.9,32.5,16.9z"/>
	<rect x="45.3" y="25.3" fill="#673AB7" width="1.4" height="1.4"/>
	<rect x="45.3" y="21.4" fill="#673AB7" width="1.4" height="2.6"/>
	<rect x="45.3" y="16.9" fill="#673AB7" width="1.4" height="3.2"/>
	<rect x="18.3" y="25.3" fill="#673AB7" width="1.4" height="1.4"/>
	<rect x="18.3" y="21.4" fill="#673AB7" width="1.4" height="2.6"/>
	<rect x="18.3" y="16.9" fill="#673AB7" width="1.4" height="3.2"/>
</g>
</svg>
