<?xml version="1.0" encoding="utf-8"?>
<!-- Generator: Adobe Illustrator 18.1.1, SVG Export Plug-In . SVG Version: 6.00 Build 0)  -->
<svg version="1.1" id="Layer_1" xmlns="http://www.w3.org/2000/svg" xmlns:xlink="http://www.w3.org/1999/xlink" x="0px" y="0px"
	 viewBox="0 0 65 65" enable-background="new 0 0 65 65" xml:space="preserve">
<g>
	<path fill="#FFFFFF" d="M23.5,35.9c0.7-0.7,0.7-1.9,0-2.6l-6.7-6.8c-0.7-0.7-1.9-0.7-2.6,0l-0.8,0.8C10.7,30,14,37.4,20.8,44.2
		C24.6,48,34,55.2,37.7,51.6l0.8-0.8c0.7-0.7,0.7-1.9,0-2.6l-6.7-6.7c-0.7-0.7-1.9-0.7-2.6,0l-0.8,0.8c0,0-0.1,0.1-0.3,0.1
		c-1.4,0-4.5-2.8-5.3-4.8c-0.2-0.4-0.2-0.8-0.1-0.9L23.5,35.9z M21.8,35.8c-0.4,0.4-0.7,1-0.2,2.3c0.9,2.3,4.5,5.6,6.5,5.6
		c0.4,0,0.8-0.1,1.1-0.4l0.8-0.8c0.3-0.3,0.6-0.3,0.9,0l6.7,6.7c0.3,0.3,0.3,0.6,0,0.9l-0.8,0.7c-2.9,2.9-11.8-4-15.2-7.4
		c-6.7-6.7-9.2-13.3-7.3-15.1l0.8-0.8c0.3-0.3,0.6-0.3,0.9,0l6.7,6.7c0.3,0.3,0.3,0.6,0,0.9L21.8,35.8z"/>
	<path fill="#FFFFFF" d="M42.9,21.8c-1.6-1.9-3.2-3.5-6-5.1c-0.2-0.1-0.4-0.1-0.6,0c-0.2,0.1-0.3,0.3-0.3,0.6
		c0.3,3.6-0.5,4.2-1.4,4.9c-0.6,0.5-1.3,1-1.8,2.4c-0.8,2.8,0.6,4.6,3.5,5c0.1,0,0.1,0,0.1,0c0.3,0,0.5-0.2,0.6-0.4
		c0.1-0.3-0.1-0.6-0.4-0.8c-0.6-0.3-0.1-1.6,0.4-2.1c0.5-0.4,0.9-0.8,1-2.1c0.8,0.6,2.8,2.3,2.5,3.3c-0.1,0.4-0.6,0.6-1,0.8
		c-0.3,0.1-0.5,0.4-0.4,0.7s0.4,0.5,0.7,0.5c2.3-0.3,3.8-1.4,4.4-2.9C44.7,25.2,44.2,23.5,42.9,21.8C43,21.9,42.9,21.8,42.9,21.8z
		 M43.2,26.3c-0.2,0.6-0.7,1.1-1.3,1.4c0.3-1.9-2.4-4.1-4.1-5c-0.2-0.1-0.4-0.1-0.6,0s-0.3,0.3-0.3,0.6c0.1,1.6-0.2,1.9-0.6,2.1
		c-1,0.8-1.3,2.1-1.3,2.6c-1.3-0.6-1.6-1.7-1.2-3.1c0.3-1,0.8-1.4,1.3-1.8c1.1-0.9,1.9-1.8,1.9-4.8c3.3,2.1,4.6,4.1,5,4.5
		C43.2,24.1,43.6,25.3,43.2,26.3z"/>
	<path fill="#FFFFFF" d="M38.6,12.4c-7.7,0-14,4.8-14,10.7c0,2.8,1.4,5.5,4,7.5l-1.3,4.5c-0.1,0.4,0.3,0.9,0.8,0.8l7.7-2.2
		c0.9,0.1,1.8,0.2,2.8,0.2c7.7,0,14-4.8,14-10.7C52.5,17.2,46.3,12.4,38.6,12.4z M38.6,32.7c-0.9,0-1.8-0.1-2.7-0.3
		c-0.1,0-0.2,0-0.3,0l-6.9,1.9l1.1-3.8c0.1-0.3,0-0.5-0.3-0.6c-2.4-1.8-3.8-4.2-3.8-6.8c0-5.3,5.7-9.5,12.7-9.5s12.8,4.3,12.8,9.5
		S45.6,32.7,38.6,32.7z"/>
</g>
</svg>
