<?xml version="1.0" encoding="utf-8"?>
<!-- Generator: Adobe Illustrator 18.1.1, SVG Export Plug-In . SVG Version: 6.00 Build 0)  -->
<svg version="1.1" id="Layer_1" xmlns="http://www.w3.org/2000/svg" xmlns:xlink="http://www.w3.org/1999/xlink" x="0px" y="0px"
	 viewBox="0 0 65 65" enable-background="new 0 0 65 65" xml:space="preserve">
<g>
	<path fill="#673AB7" d="M47.5,50.7l-8.2-21.9l1.2-3.1l2.5,6.5c0.3,0.7,1.1,1.1,1.8,0.8c0.7-0.3,1.1-1.1,0.8-1.8l-3.8-9.9
		c-0.2-0.5-0.7-0.9-1.3-0.9l0,0c-0.6,0-1.1,0.4-1.3,0.9l-1.3,3.6l-1.3-3.6c-0.2-0.5-0.7-0.9-1.3-0.9l0,0c-0.6,0-1.1,0.4-1.3,0.9
		l-2.5,6.5L29,21.3c-0.2-0.5-0.7-0.9-1.3-0.9l0,0c-0.6,0-1.1,0.4-1.3,0.9l-1.3,3.6l-1.3-3.6c-0.2-0.5-0.7-0.9-1.3-0.9l0,0
		c-0.6,0-1.1,0.4-1.3,0.9l-3.8,9.9c-0.3,0.7,0.1,1.5,0.8,1.8c0.7,0.3,1.5-0.1,1.8-0.8l2.4-6.5l1.2,3.1l-2.1,5.7
		c0,0.2-0.1,0.3-0.1,0.5v14.8h-1.8c-0.8,0-1.4,0.6-1.4,1.4c0,0.8,0.6,1.4,1.4,1.4h3.2c0.8,0,1.4-0.6,1.4-1.4v-16l0.9-2.5l0.9,2.5v16
		c0,0.8,0.6,1.4,1.4,1.4h2h1.1h9c0.1,0,0.2,0,0.3,0c0.1,0,0.2,0,0.3,0h6c0.4,0,0.9-0.2,1.1-0.6C47.6,51.5,47.7,51.1,47.5,50.7z
		 M26.6,28.7l1.2-3.1l2.4,6.2c0.1,0.4,0.4,0.8,0.8,1c0.1,0,0.1,0,0.2,0l0,0c0.1,0,0.1,0,0.2,0c0,0,0.1,0,0.1,0s0.1,0,0.1,0
		c0.1,0,0.1,0,0.2,0l0,0c0.1,0,0.1,0,0.2,0c0.4-0.2,0.8-0.6,0.8-1l2.4-6.2l1.2,3.1L28.8,49V34.9c0-0.2,0-0.3-0.1-0.5L26.6,28.7z
		 M40.2,49.7c-0.1,0-0.2,0-0.3,0c-0.1,0-0.2,0-0.3,0h-8.1l6.4-17.1l6.4,17.1H40.2z"/>
	<circle fill="#673AB7" cx="38" cy="15.7" r="3.2"/>
	<circle fill="#673AB7" cx="25.2" cy="15.7" r="3.2"/>
</g>
</svg>
