<?xml version="1.0" encoding="utf-8"?>
<!-- Generator: Adobe Illustrator 18.1.1, SVG Export Plug-In . SVG Version: 6.00 Build 0)  -->
<svg version="1.1" id="Layer_1" xmlns="http://www.w3.org/2000/svg" xmlns:xlink="http://www.w3.org/1999/xlink" x="0px" y="0px"
	 viewBox="0 0 65 65" enable-background="new 0 0 65 65" xml:space="preserve">
<g>
	<path fill="#673AB7" d="M17.2,15.9v33.2c0,1.8,1.4,3.2,3.2,3.2h24.2c1.8,0,3.2-1.4,3.2-3.2V15.9c0-1.8-1.4-3.2-3.2-3.2H20.4
		C18.6,12.7,17.2,14.2,17.2,15.9z M18.2,15.9c0-1.2,1-2.2,2.2-2.2h24.2c1.2,0,2.2,1,2.2,2.2v33.2c0,1.2-1,2.2-2.2,2.2H20.4
		c-1.2,0-2.2-1-2.2-2.2V15.9z"/>
	<path fill="#673AB7" d="M22.5,27.7h7.9c0.3,0,0.5-0.2,0.5-0.5c0-0.3-0.2-0.5-0.5-0.5h-7.9c-0.3,0-0.5,0.2-0.5,0.5
		C22.1,27.5,22.3,27.7,22.5,27.7z"/>
	<path fill="#673AB7" d="M22.5,24.6h7.9c0.3,0,0.5-0.2,0.5-0.5c0-0.3-0.2-0.5-0.5-0.5h-7.9c-0.3,0-0.5,0.2-0.5,0.5
		C22.1,24.4,22.3,24.6,22.5,24.6z"/>
	<path fill="#673AB7" d="M22.5,18.4h7.9c0.3,0,0.5-0.2,0.5-0.5c0-0.3-0.2-0.5-0.5-0.5h-7.9c-0.3,0-0.5,0.2-0.5,0.5
		C22.1,18.1,22.3,18.4,22.5,18.4z"/>
	<path fill="#673AB7" d="M22.5,21.5h7.9c0.3,0,0.5-0.2,0.5-0.5c0-0.3-0.2-0.5-0.5-0.5h-7.9c-0.3,0-0.5,0.2-0.5,0.5
		C22.1,21.3,22.3,21.5,22.5,21.5z"/>
	<path fill="#673AB7" d="M20.6,32.8h1.2c0.3,0,0.5-0.2,0.5-0.5c0-0.3-0.2-0.5-0.5-0.5h-1.2c-0.3,0-0.5,0.2-0.5,0.5
		C20.1,32.6,20.3,32.8,20.6,32.8z"/>
	<path fill="#673AB7" d="M25.6,32.8c0.3,0,0.5-0.2,0.5-0.5c0-0.3-0.2-0.5-0.5-0.5h-1.2c-0.3,0-0.5,0.2-0.5,0.5
		c0,0.3,0.2,0.5,0.5,0.5H25.6z"/>
	<path fill="#673AB7" d="M29.3,32.8c0.3,0,0.5-0.2,0.5-0.5c0-0.3-0.2-0.5-0.5-0.5h-1.2c-0.3,0-0.5,0.2-0.5,0.5
		c0,0.3,0.2,0.5,0.5,0.5H29.3z"/>
	<path fill="#673AB7" d="M31.8,32.8h1.2c0.3,0,0.5-0.2,0.5-0.5c0-0.3-0.2-0.5-0.5-0.5h-1.2c-0.3,0-0.5,0.2-0.5,0.5
		C31.3,32.6,31.6,32.8,31.8,32.8z"/>
	<path fill="#673AB7" d="M36.8,32.8c0.3,0,0.5-0.2,0.5-0.5c0-0.3-0.2-0.5-0.5-0.5h-1.2c-0.3,0-0.5,0.2-0.5,0.5
		c0,0.3,0.2,0.5,0.5,0.5H36.8z"/>
	<path fill="#673AB7" d="M40.5,32.8c0.3,0,0.5-0.2,0.5-0.5c0-0.3-0.2-0.5-0.5-0.5h-1.2c-0.3,0-0.5,0.2-0.5,0.5
		c0,0.3,0.2,0.5,0.5,0.5H40.5z"/>
	<path fill="#673AB7" d="M42.6,32.3c0,0.3,0.2,0.5,0.5,0.5h1.2c0.3,0,0.5-0.2,0.5-0.5c0-0.3-0.2-0.5-0.5-0.5h-1.2
		C42.8,31.8,42.6,32,42.6,32.3z"/>
	<path fill="#673AB7" d="M34.6,27.8h8.1c0.3,0,0.5-0.2,0.5-0.5v-9.5c0-0.3-0.2-0.5-0.5-0.5h-8.1c-0.3,0-0.5,0.2-0.5,0.5v9.5
		C34.1,27.6,34.3,27.8,34.6,27.8z M35.1,18.4h7.1v8.5h-7.1V18.4z"/>
	<path fill="#673AB7" d="M44.8,36.5c0-0.3-0.2-0.5-0.4-0.5c-3.5-0.3-5.4,3.1-6.1,4.8c-0.6-0.8-1.3-1.5-2-2.1
		c0.4-0.4,1.2-1.1,2.2-1.4c0.6-0.2,0.7-0.6,0.7-0.7c0-0.5-0.4-1-1.2-1.4c-1.7-0.8-4.3-0.8-6.4,1.1c-1-0.3-1.7-0.3-1.8-0.3
		c-0.1,0-6.7-0.8-9.2,5.7c0,0.1,0,0.2,0,0.3c0,0.1,0.5,1.5,1.8,2.9c1.2,1.3,3.5,2.8,7.3,2.8c0,0,0,0,0,0c0.1,0,0.7,0,1.5-0.2
		c1.3,1.2,2.8,1.7,4.2,1.7c0.9,0,1.7-0.2,2.3-0.5c0.8-0.4,1.2-0.9,1.2-1.4c0-0.2-0.1-0.6-0.7-0.7c-0.9-0.3-1.6-1.1-2-1.5
		c0.7-0.6,1.4-1.3,2-2.1c0.7,1.6,2.5,4.8,5.7,4.8c0.1,0,0.3,0,0.4,0c0.3,0,0.4-0.2,0.4-0.5c0-0.2,0.1-3.6-1.8-5.4
		C44.8,40.1,44.8,36.6,44.8,36.5z M36.6,35.8c0.7,0.2,1.2,0.4,1.4,0.6c-1.2,0.4-2.1,1.3-2.5,1.7c-1-0.7-2-1.2-2.8-1.5
		C34.3,35.5,35.9,35.7,36.6,35.8z M21.5,41.9c2-5,6.7-5,7.8-4.9c0.6,0.9,2.9,5.2,0,9.8C23.6,46.6,21.8,42.7,21.5,41.9z M37.7,47.4
		c-0.2,0.2-0.7,0.5-1.4,0.6c-0.7,0.2-2.3,0.3-4-0.9c0.9-0.3,2-0.8,3.1-1.6C35.8,46.1,36.6,47,37.7,47.4z M30.6,46.6
		c2.2-4,0.8-7.8,0-9.5c1.6,0.3,4.8,1.4,7.2,4.7C35.4,45.2,32.1,46.3,30.6,46.6z M41.9,41.4c-0.1,0.1-0.2,0.2-0.2,0.4
		s0.1,0.3,0.2,0.4c1.5,1,1.8,3.4,1.9,4.5c-3-0.1-4.6-4.1-4.9-4.9c0.3-0.8,1.9-4.8,4.9-4.9C43.7,38,43.4,40.5,41.9,41.4z"/>
	<path fill="#673AB7" d="M26.4,38.9c-1,0-1.8,0.8-1.8,1.8c0,0.3,0.2,0.5,0.5,0.5c0.3,0,0.5-0.2,0.5-0.5c0-0.4,0.4-0.8,0.8-0.8
		c0.4,0,0.8,0.4,0.8,0.8c0,0.3,0.2,0.5,0.5,0.5c0.3,0,0.5-0.2,0.5-0.5C28.2,39.7,27.4,38.9,26.4,38.9z"/>
</g>
</svg>
