<?xml version="1.0" encoding="utf-8"?>
<!-- Generator: Adobe Illustrator 18.1.1, SVG Export Plug-In . SVG Version: 6.00 Build 0)  -->
<svg version="1.1" id="Layer_1" xmlns="http://www.w3.org/2000/svg" xmlns:xlink="http://www.w3.org/1999/xlink" x="0px" y="0px"
	 viewBox="0 0 65 65" enable-background="new 0 0 65 65" xml:space="preserve">
<g>
	<g>
		<g>
			<polygon fill="#FFFFFF" points="52.6,52.5 28.5,52.5 28.5,51.2 51.2,51.2 51.2,19.1 45.9,13.8 28.5,13.8 28.5,12.4 46.5,12.4 
				52.6,18.6 			"/>
			<polygon fill="#FFFFFF" points="51.9,19.5 45.5,19.5 45.5,13.1 46.9,13.1 46.9,18.2 51.9,18.2 			"/>
		</g>
		<g>
			<g>
				<path fill="#FFFFFF" d="M35.6,48.4h-4.4V44h4.4V48.4z M32.6,47h1.7v-1.7h-1.7V47z"/>
				<rect x="37.2" y="44" fill="#FFFFFF" width="6.1" height="1.4"/>
				<rect x="37.2" y="47" fill="#FFFFFF" width="12.2" height="1.4"/>
			</g>
			<g>
				<path fill="#FFFFFF" d="M35.6,42.3h-4.4v-4.4h4.4V42.3z M32.6,40.9h1.7v-1.7h-1.7V40.9z"/>
				<rect x="37.2" y="37.9" fill="#FFFFFF" width="6.1" height="1.4"/>
				<rect x="37.2" y="40.9" fill="#FFFFFF" width="12.2" height="1.4"/>
			</g>
			<g>
				<rect x="37.2" y="31.8" fill="#FFFFFF" width="6.1" height="1.4"/>
				<rect x="37.2" y="34.9" fill="#FFFFFF" width="12.2" height="1.4"/>
				<polygon fill="#FFFFFF" points="33,36.2 30.9,34.1 31.9,33.2 33,34.3 34.9,32.4 35.9,33.3 				"/>
			</g>
			<g>
				<rect x="37.2" y="25.8" fill="#FFFFFF" width="6.1" height="1.4"/>
				<rect x="37.2" y="28.8" fill="#FFFFFF" width="12.2" height="1.4"/>
				<polygon fill="#FFFFFF" points="33,30.1 30.9,28.1 31.9,27.1 33,28.2 34.9,26.3 35.9,27.2 				"/>
			</g>
			<g>
				<rect x="37.2" y="19.7" fill="#FFFFFF" width="6.1" height="1.4"/>
				<rect x="37.2" y="22.7" fill="#FFFFFF" width="12.2" height="1.4"/>
				<polygon fill="#FFFFFF" points="33,24 30.9,22 31.9,21 33,22.1 34.9,20.2 35.9,21.2 				"/>
			</g>
		</g>
		<g>
			<rect x="31.1" y="16.6" fill="#FFFFFF" width="1.5" height="1.4"/>
			<rect x="34.2" y="16.6" fill="#FFFFFF" width="1.5" height="1.4"/>
			<rect x="37.2" y="16.6" fill="#FFFFFF" width="1.5" height="1.4"/>
		</g>
	</g>
	<g>
		<path fill="#FFFFFF" d="M20.8,21.8c-2.6,0-4.7-2.1-4.7-4.7s2.1-4.7,4.7-4.7s4.7,2.1,4.7,4.7C25.5,19.7,23.4,21.8,20.8,21.8z
			 M20.8,13.8c-1.8,0-3.3,1.5-3.3,3.3c0,1.8,1.5,3.3,3.3,3.3c1.8,0,3.3-1.5,3.3-3.3C24.1,15.3,22.6,13.8,20.8,13.8z"/>
		<rect x="20.1" y="40.6" fill="#FFFFFF" width="1.4" height="12"/>
		<rect x="15.8" y="36" fill="#FFFFFF" width="1.4" height="16.6"/>
		<rect x="24.4" y="36" fill="#FFFFFF" width="1.4" height="16.6"/>
		<path fill="#FFFFFF" d="M29.2,39h-4.1v-1.4h2.8v-9.3c0-1-0.4-1.9-1.1-2.6c-0.7-0.7-1.6-1.1-2.6-1.1h-0.4l-3,3l-3-3h-0.4
			c-1,0-1.9,0.4-2.6,1.1c-0.7,0.7-1.1,1.6-1.1,2.6v9.3h2.8V39h-4.1V28.3c0-1.3,0.5-2.6,1.5-3.5c0.9-0.9,2.2-1.5,3.5-1.5h1l2.5,2.5
			l2.5-2.5h1c1.3,0,2.6,0.5,3.5,1.5c0.9,0.9,1.5,2.2,1.5,3.5L29.2,39L29.2,39z"/>
		<g>
			<rect x="20.1" y="28.8" fill="#FFFFFF" width="1.4" height="1.5"/>
			<rect x="20.1" y="31.9" fill="#FFFFFF" width="1.4" height="1.5"/>
		</g>
	</g>
</g>
</svg>
