<?xml version="1.0" encoding="utf-8"?>
<!-- Generator: Adobe Illustrator 18.1.1, SVG Export Plug-In . SVG Version: 6.00 Build 0)  -->
<svg version="1.1" id="Layer_1" xmlns="http://www.w3.org/2000/svg" xmlns:xlink="http://www.w3.org/1999/xlink" x="0px" y="0px"
	 viewBox="0 0 65 65" enable-background="new 0 0 65 65" xml:space="preserve">
<g>
	<g>
		<path fill="#673AB7" d="M40.2,31.1c-0.6-0.7-1.6-0.8-2.3-0.3c-1.3,0.8-1.6,2.9-0.6,4.1c0.7,0.8,1.7,0.9,2.5,0.3
			C41.1,34.2,41.3,32.2,40.2,31.1z M39.3,34.1c-0.4,0.3-0.8,0.3-1.1-0.1c-0.5-0.6-0.4-1.7,0.2-2.2c0.4-0.4,0.9-0.3,1.2,0.2
			C39.9,32.7,39.8,33.6,39.3,34.1z"/>
		<path fill="#673AB7" d="M32.5,34.1c1.6-2.5,3.2-5.1,4.8-7.6c0.2-0.3,0.3-0.3,0.6-0.2c0.2,0.1,0.3,0.2,0.4,0.3
			c0.2,0.2,0.1,0.4,0,0.5c-0.6,0.9-1.1,1.8-1.7,2.7c-1.1,1.7-2.1,3.4-3.2,5c-0.2,0.4-0.3,0.4-0.7,0.2C32.1,34.7,32.1,34.7,32.5,34.1
			z"/>
		<path fill="#673AB7" d="M33.3,26.7c-0.8-0.9-2.2-1-2.9,0c-0.8,1-0.9,2.3-0.2,3.5c0.6,0.9,1.8,1.2,2.7,0.5
			C34.1,29.8,34.3,27.9,33.3,26.7z M32.3,29.7c-0.3,0.3-0.7,0.3-1-0.1c-0.5-0.6-0.5-1.6,0.1-2.2c0.4-0.4,0.8-0.3,1.2,0.1
			C32.9,28.1,32.8,29.2,32.3,29.7z"/>
	</g>
	<path fill="#673AB7" d="M50.2,26.2c-0.4-0.3-0.7-0.5-1.1-0.8c-0.6-0.5-1.1-0.9-1.7-1.3l-5.1-3.9l-1-0.8c-1.5-1.2-3.1-2.4-4.6-3.6
		c-0.3-0.2-0.5-0.3-0.8-0.4c0,0,0,0,0,0c-0.1,0-0.2-0.1-0.2-0.1c-0.1,0-0.1,0-0.1,0c-0.1,0-0.1,0-0.2,0c-0.1,0-0.1,0-0.2,0
		c0,0-0.1,0-0.1,0c-0.1,0-0.2,0-0.2,0.1c0,0,0,0,0,0c-0.3,0.1-0.5,0.2-0.8,0.4c-1.9,1.4-3.8,2.9-5.6,4.3v-1.6c0-0.4-0.3-0.7-0.7-0.7
		h-2.7c-0.4,0-0.7,0.3-0.7,0.7c0,1.6,0,2.9,0,4.2c0,0.2-0.1,0.5-0.3,0.7c-0.8,0.6-1.6,1.2-2.4,1.9c-0.4,0.3-0.7,0.5-1.1,0.8
		c-0.5,0.4-0.8,0.8-0.8,1.3c0,0.3,0.1,0.6,0.2,0.8c0.4,0.6,1.2,0.9,2,0.7c0.2-0.1,0.4-0.1,0.5-0.2v5.5c0.4,0,0.9,0,1.3,0
		c0.3,0,0.6,0,1,0v-7.1c0-0.1,0-0.1,0-0.2c3.3-2.5,6.6-5,9.9-7.6l0.3-0.2c0.1-0.1,0.3-0.1,0.4-0.1c0.1,0,0.2,0.1,0.4,0.1l0.3,0.2
		c3.3,2.5,6.6,5.1,9.9,7.6c0,0.1,0,0.1,0,0.2v3.7c0,0,0,0,0,0v8.3c0.7-0.3,1.5-0.6,2.3-0.9v-9.6c0.2,0.1,0.3,0.2,0.5,0.2
		c0.8,0.2,1.6-0.1,2-0.7c0.2-0.2,0.2-0.5,0.2-0.8C51,27,50.7,26.5,50.2,26.2z"/>
	<path fill="#673AB7" d="M51.5,39.2c-0.5-0.1-1,0-1.4,0.2c-2.7,1-5.3,2.1-8,3.1c-0.1,0-0.3,0.1-0.4,0.2c-0.7,0.8-1.6,1.2-2.7,1.2
		c-1.7,0-3.4,0.1-5,0.1c-1.1,0-2.3,0.1-3.4,0.1c-0.3,0-0.6-0.3-0.7-0.7c0-0.3,0.2-0.5,0.5-0.5c0.1,0,0.2,0,0.3,0
		c1.4,0,2.8-0.1,4.2-0.1c1.5,0,3,0,4.5-0.1c1-0.1,1.7-0.8,1.8-1.8c0-1.1-0.8-1.9-1.9-1.9c-1.7,0-3.8-0.2-5.5-0.5c-2-0.3-3-1.4-5-2
		c-3-1-6.2-0.6-9.3-0.6c0-0.2,0-0.4,0-0.7c0-0.7-0.4-1-1.1-1c-1.8,0-3.7,0.1-5.5,0.1c-0.1,0-0.2,0-0.4,0c0.1,1,0.2,1.9,0.3,2.9
		c0.5,3.5,1.7,6.8,3.7,9.8c0.1,0.1,0.3,0.3,0.5,0.3c0.6,0,1.3,0,1.9,0c0.6,0,1-0.4,0.9-1c0-0.2,0-0.4,0-0.5c0,0,0,0,0,0
		c1.4,0.4,2.8,0.8,4.2,1.2c2.6,0.8,5.2,1.6,7.9,2.2c2.2,0.6,4.4,0.6,6.5-0.5c4.4-2.4,8.9-4.9,13.3-7.3c0.2-0.1,0.4-0.3,0.6-0.5
		C52.7,40.3,52.4,39.3,51.5,39.2z"/>
</g>
</svg>
