<?xml version="1.0" encoding="utf-8"?>
<!-- Generator: Adobe Illustrator 18.1.1, SVG Export Plug-In . SVG Version: 6.00 Build 0)  -->
<svg version="1.1" id="Layer_1" xmlns="http://www.w3.org/2000/svg" xmlns:xlink="http://www.w3.org/1999/xlink" x="0px" y="0px"
	 viewBox="0 0 65 65" enable-background="new 0 0 65 65" xml:space="preserve">
<g>
	<path fill="#FFFFFF" d="M44.1,21.5H37V17c0-2.5-2-4.5-4.5-4.5S28,14.5,28,17v4.5h-7.1c-1.1,0-1.9,0.9-1.9,1.9v27.1
		c0,1.1,0.9,1.9,1.9,1.9h23.2c1.1,0,1.9-0.9,1.9-1.9V23.5C46,22.4,45.2,21.5,44.1,21.5z M29.3,17c0-1.8,1.4-3.2,3.2-3.2
		s3.2,1.4,3.2,3.2v4.5h-6.4V17z M44.8,50.6c0,0.4-0.3,0.6-0.6,0.6H20.9c-0.4,0-0.6-0.3-0.6-0.6V23.5c0-0.4,0.3-0.6,0.6-0.6h23.2
		c0.4,0,0.6,0.3,0.6,0.6V50.6z"/>
	<path fill="#FFFFFF" d="M32.5,15.1c-1.1,0-1.9,0.9-1.9,1.9v1.3c0,0.4,0.3,0.6,0.6,0.6h2.6c0.4,0,0.6-0.3,0.6-0.6V17
		C34.4,16,33.6,15.1,32.5,15.1z M33.1,17.7h-1.3V17c0-0.4,0.3-0.6,0.6-0.6s0.6,0.3,0.6,0.6V17.7z"/>
	<path fill="#FFFFFF" d="M28.6,38.3h7.7c0.4,0,0.6-0.3,0.6-0.6v-2.6c0-1.7-1-3.3-2.4-4c0.7-0.6,1.1-1.5,1.1-2.4v-1.3
		c0-1.8-1.4-3.2-3.2-3.2s-3.2,1.4-3.2,3.2v1.3c0,1,0.5,1.9,1.1,2.4c-1.4,0.8-2.4,2.3-2.4,4v2.6C28,38,28.3,38.3,28.6,38.3z
		 M30.6,28.6v-1.3c0-1.1,0.9-1.9,1.9-1.9s1.9,0.9,1.9,1.9v1.3c0,1.1-0.9,1.9-1.9,1.9S30.6,29.7,30.6,28.6z M29.3,35.1
		c0-1.8,1.4-3.2,3.2-3.2s3.2,1.4,3.2,3.2V37h-6.4V35.1z"/>
	<path fill="#FFFFFF" d="M42.8,39.6h-9c-0.4,0-0.6,0.3-0.6,0.6v9c0,0.4,0.3,0.6,0.6,0.6h9c0.4,0,0.6-0.3,0.6-0.6v-9
		C43.5,39.9,43.2,39.6,42.8,39.6z M42.2,48.6h-7.7v-7.7h7.7V48.6z"/>
	<path fill="#FFFFFF" d="M37.7,48C37.7,48,37.7,48,37.7,48c0.3,0,0.4-0.1,0.5-0.3l3.2-5.2l-1.1-0.7l-2.8,4.5l-1.4-1.4l-0.9,0.9
		l1.9,1.9C37.3,47.9,37.5,48,37.7,48z"/>
	<rect x="21.5" y="48.6" fill="#FFFFFF" width="10.3" height="1.3"/>
	<rect x="21.5" y="46" fill="#FFFFFF" width="10.3" height="1.3"/>
	<rect x="21.5" y="43.5" fill="#FFFFFF" width="10.3" height="1.3"/>
</g>
</svg>
