<?xml version="1.0" encoding="utf-8"?>
<!-- Generator: Adobe Illustrator 18.1.1, SVG Export Plug-In . SVG Version: 6.00 Build 0)  -->
<svg version="1.1" id="Layer_1" xmlns="http://www.w3.org/2000/svg" xmlns:xlink="http://www.w3.org/1999/xlink" x="0px" y="0px"
	 viewBox="0 0 65 65" enable-background="new 0 0 65 65" xml:space="preserve">
<g>
	<path fill="#673AB7" d="M52.5,43.6h-0.7c-1.5,0-2.7-1.2-2.7-2.7c0-1.5,1.2-2.7,2.7-2.7h0.7v-6.7h-9.1l4.7-4.7l-4.6-4.6l-0.5,0.5
		c-1,1-2.7,1-3.8,0c-1-1-1-2.7,0-3.8l0.5-0.5l-3.9-3.9L18.9,31.6h-6.4v6.7h0.7c1.5,0,2.7,1.2,2.7,2.7c0,1.5-1.2,2.7-2.7,2.7h-0.7
		v6.7h40V43.6z M35.8,16.6l2.1,2.1c-1.3,1.8-0.9,4.3,0.9,5.6c1.4,1,3.3,1,4.7,0l2.7,2.7l-4.7,4.7h-2.1l2-2l-8.3-8.3L22.9,31.6h-2.1
		L35.8,16.6z M24.8,31.6l8.4-8.4l6.4,6.4l-2,2H24.8z M51.2,49h-5.3v-2.7h-1.3V49h-24v-0.7h-1.3V49h-5.3v-4.1
		c2.2-0.4,3.6-2.4,3.3-4.6c-0.3-1.7-1.6-3-3.3-3.3V33h5.3v2h1.3v-2h30.7V37c-2.2,0.4-3.6,2.4-3.3,4.6c0.3,1.7,1.6,3,3.3,3.3V49z"/>
	<rect x="44.5" y="34.3" fill="#673AB7" width="1.3" height="2.7"/>
	<rect x="44.5" y="38.3" fill="#673AB7" width="1.3" height="2.7"/>
	<rect x="44.5" y="42.3" fill="#673AB7" width="1.3" height="2.7"/>
	<rect x="19.2" y="36.3" fill="#673AB7" width="1.3" height="2.7"/>
	<rect x="19.2" y="40.3" fill="#673AB7" width="1.3" height="2.7"/>
	<rect x="19.2" y="44.3" fill="#673AB7" width="1.3" height="2.7"/>
	<path fill="#673AB7" d="M40.5,35v-0.7h-16V35c0,0.7-0.6,1.3-1.3,1.3h-0.7v9.3h0.7c0.7,0,1.3,0.6,1.3,1.3v0.7h16V47
		c0-0.7,0.6-1.3,1.3-1.3h0.7v-9.3h-0.7C41.1,36.3,40.5,35.7,40.5,35z M41.2,44.4c-0.9,0.2-1.7,1-1.9,1.9H25.7
		c-0.2-0.9-1-1.7-1.9-1.9v-6.8c0.9-0.2,1.7-1,1.9-1.9h13.5c0.2,0.9,1,1.7,1.9,1.9V44.4z"/>
</g>
</svg>
