<?xml version="1.0" encoding="utf-8"?>
<!-- Generator: Adobe Illustrator 18.1.1, SVG Export Plug-In . SVG Version: 6.00 Build 0)  -->
<svg version="1.1" id="Layer_1" xmlns="http://www.w3.org/2000/svg" xmlns:xlink="http://www.w3.org/1999/xlink" x="0px" y="0px"
	 viewBox="0 0 65 65" enable-background="new 0 0 65 65" xml:space="preserve">
<g>
	<g>
		<path fill="#FFFFFF" d="M16.8,53.1l5.8-1l3.4-4.8c0.2-0.2,0.5-0.4,0.7-0.5c0.3,0,2.2-0.4,2.5-0.4l0,0c0,0,0.1,0,0.1,0l11.1-1.9
			c0.1,0,0.2,0,0.3-0.1c0.6-0.1,1.1-0.4,1.4-0.9l8.2-11.7l0,0c0.7-1,0.5-2.3-0.5-3c-1-0.7-2.3-0.5-3,0.5l0,0l-5.9,8.4
			c-0.3,0.4-0.8,0.8-1.3,0.8L37.3,39l0,0L36,39.2l-6.5,1.1c-0.6,0.1-1.2-0.3-1.3-0.9c-0.1-0.6,0.3-1.2,0.9-1.3l7.7-1.3l0,0
			c1.2-0.2,1.9-1.3,1.7-2.5c-0.2-1.2-1.3-1.9-2.5-1.7l-9.9,1.7c-1.8,0.3-3.6,1-4.6,2.4h0l-0.1,0.2c0,0,0,0,0,0L16,44.6
			c-0.3,0.5-0.4,1.1-0.3,1.6C15.6,46.2,16.8,53,16.8,53.1z"/>
		<path fill="#FFFFFF" d="M25.5,24.3c0.6,3.4,3.8,5.6,7.1,5s5.6-3.8,5-7.1c-0.7-4.1-7.1-7.2-7.5-9.3c0-0.2-0.2-0.4-0.5-0.3
			c-0.2,0-0.4,0.2-0.3,0.5C29.8,15.1,24.8,20.2,25.5,24.3z"/>
	</g>
</g>
</svg>
